<svg width="78" height="102" viewBox="0 0 78 102" fill="none" xmlns="http://www.w3.org/2000/svg">
<g clip-path="url(#clip0_1483_56)">
<path d="M17.6497 45.7099C20.8097 41.5899 27.3897 40.9699 31.1797 43.8799C35.1297 46.9099 34.2497 50.1199 33.1097 51.2499C32.6997 51.6699 32.1597 51.8699 31.1697 51.2499L21.8097 44.0699C21.2897 44.5399 20.6597 45.1899 20.0697 45.9599C17.4797 49.3399 18.3897 54.2299 22.0997 57.0699C25.1497 59.4099 28.4197 59.2099 32.0097 57.5599C32.3597 57.3999 32.5897 57.5799 32.2597 57.7499C29.9297 58.8899 27.2297 59.6599 24.6197 59.4799C22.7997 59.3499 21.0497 58.7899 19.4797 57.5899C15.2797 54.3699 14.7397 49.4999 17.6497 45.7099ZM22.3697 43.6599C25.4697 46.0399 27.3697 47.4899 29.1497 48.8599C29.5297 49.1499 29.9897 49.5599 30.1397 49.5399C30.4497 49.4699 30.9197 49.1799 31.1897 48.8199C31.9897 47.7799 32.0597 45.5199 29.9497 43.8999C27.5897 42.0899 24.9697 41.6999 22.3697 43.6699V43.6599Z" fill="#DBABA0"/>
<path d="M59.4892 55.8901C56.3292 60.0101 49.7492 60.6301 45.9592 57.7201C42.0092 54.6901 42.8892 51.4801 44.0292 50.3501C44.4392 49.9301 44.9792 49.7301 45.8392 50.3801L55.1992 57.5601C55.8492 57.0501 56.4792 56.4001 57.0692 55.6401C59.6592 52.2601 58.7492 47.3701 55.0392 44.5301C51.9892 42.1901 48.7192 42.4001 45.1192 44.0501C44.7692 44.2101 44.5492 44.0201 44.8792 43.8601C47.2092 42.7201 49.9092 41.9501 52.5192 42.1301C54.3392 42.2601 56.0892 42.8201 57.6592 44.0201C61.8592 47.2401 62.3992 52.1101 59.4892 55.9001V55.8901ZM54.7292 57.8301C51.6292 55.4501 49.8292 54.0801 48.0492 52.7101C47.6692 52.4201 47.0192 52.0701 46.8692 52.0901C46.5592 52.1601 46.2192 52.4201 45.9492 52.7801C45.1492 53.8201 45.0792 56.0801 47.1892 57.7001C49.5492 59.5101 52.1292 59.8001 54.7292 57.8301Z" fill="#DBABA0"/>
<path d="M43.6594 29.8801C47.7794 33.0401 48.3994 39.6201 45.4894 43.4101C42.4594 47.3601 39.2494 46.4801 38.1194 45.3401C37.6994 44.9301 37.4994 44.3901 38.1194 43.4001L45.2994 34.0401C44.8294 33.5201 44.1794 32.8901 43.4094 32.3001C40.0294 29.7101 35.1394 30.6201 32.2994 34.3301C29.9594 37.3801 30.1594 40.6501 31.8094 44.2401C31.9694 44.5901 31.7894 44.8201 31.6194 44.4901C30.4794 42.1601 29.7094 39.4601 29.8894 36.8501C30.0194 35.0301 30.5794 33.2801 31.7794 31.7101C34.9994 27.5101 39.8694 26.9701 43.6594 29.8801ZM45.7094 34.5901C43.3294 37.6901 41.8794 39.5901 40.5094 41.3701C40.2194 41.7501 39.8094 42.2101 39.8294 42.3601C39.8994 42.6701 40.1894 43.1401 40.5494 43.4101C41.5894 44.2101 43.8494 44.2801 45.4694 42.1701C47.2794 39.8101 47.6694 37.1901 45.6994 34.5901H45.7094Z" fill="#DBABA0"/>
<path d="M33.4809 71.7099C29.3609 68.5499 28.7409 61.9699 31.6509 58.1799C34.6809 54.2299 37.8909 55.1099 39.0209 56.2499C39.4409 56.6599 39.6409 57.1999 38.9909 58.0599L31.8109 67.4199C32.3209 68.0699 32.9709 68.6999 33.7309 69.2899C37.1109 71.8799 42.0009 70.9699 44.8409 67.2599C47.1809 64.2099 46.9709 60.9399 45.3209 57.3399C45.1609 56.9899 45.3509 56.7699 45.5109 57.0999C46.6509 59.4299 47.4209 62.1299 47.2409 64.7399C47.1109 66.5599 46.5509 68.3099 45.3509 69.8799C42.1309 74.0799 37.2609 74.6199 33.4709 71.7099H33.4809ZM31.5409 66.9599C33.9209 63.8599 35.2909 62.0599 36.6609 60.2799C36.9509 59.8999 37.3009 59.2499 37.2809 59.0999C37.2109 58.7899 36.9509 58.4499 36.5909 58.1799C35.5509 57.3799 33.2909 57.3099 31.6709 59.4199C29.8609 61.7799 29.5709 64.3599 31.5409 66.9599Z" fill="#DBABA0"/>
<path d="M38.5691 97.7199C19.4391 97.7199 3.86914 82.1499 3.86914 63.0199V38.5699C3.87914 19.4399 19.4391 3.87988 38.5691 3.87988C57.6991 3.87988 73.2691 19.4399 73.2691 38.5799V63.0299C73.2691 82.1599 57.7091 97.7299 38.5691 97.7299V97.7199ZM38.5691 4.37988C19.7191 4.37988 4.37914 19.7099 4.37914 38.5699V63.0199C4.37914 81.8799 19.7191 97.2199 38.5791 97.2199C57.4391 97.2199 72.7791 81.8799 72.7791 63.0199V38.5699C72.7791 19.7099 57.4391 4.36988 38.5791 4.36988L38.5691 4.37988Z" fill="#DBABA0"/>
<path d="M38.57 101.59C17.3 101.59 0 84.29 0 63.02V38.57C0 17.3 17.3 0 38.57 0C59.84 0 77.14 17.3 77.14 38.57V63.02C77.14 84.29 59.84 101.59 38.57 101.59ZM38.57 0.5C17.58 0.5 0.5 17.58 0.5 38.57V63.02C0.5 84.01 17.58 101.09 38.57 101.09C59.56 101.09 76.64 84.01 76.64 63.02V38.57C76.64 17.58 59.57 0.5 38.57 0.5Z" fill="#DBABA0"/>
</g>
<defs>
<clipPath id="clip0_1483_56">
<rect width="77.14" height="101.59" fill="white"/>
</clipPath>
</defs>
</svg>
